<mxfile host="app.diagrams.net" agent="Mozilla/5.0 (Windows NT 10.0; Win64; x64) AppleWebKit/537.36 (KHTML, like Gecko) Chrome/131.0.0.0 Safari/537.36" version="25.0.3">
  <diagram name="หน้า-1" id="ato726wgO0keppUokeH4">
    <mxGraphModel dx="1034" dy="446" grid="1" gridSize="10" guides="1" tooltips="1" connect="1" arrows="1" fold="1" page="1" pageScale="1" pageWidth="827" pageHeight="1169" math="0" shadow="0">
      <root>
        <mxCell id="0" />
        <mxCell id="1" parent="0" />
        <mxCell id="WntsAN7YbI-L3OEoXd3N-3" value="" style="edgeStyle=orthogonalEdgeStyle;rounded=0;orthogonalLoop=1;jettySize=auto;html=1;" edge="1" parent="1" source="WntsAN7YbI-L3OEoXd3N-1" target="WntsAN7YbI-L3OEoXd3N-2">
          <mxGeometry relative="1" as="geometry" />
        </mxCell>
        <mxCell id="WntsAN7YbI-L3OEoXd3N-1" value="start" style="strokeWidth=2;html=1;shape=mxgraph.flowchart.terminator;whiteSpace=wrap;" vertex="1" parent="1">
          <mxGeometry x="364" y="50" width="100" height="60" as="geometry" />
        </mxCell>
        <mxCell id="WntsAN7YbI-L3OEoXd3N-5" value="" style="edgeStyle=orthogonalEdgeStyle;rounded=0;orthogonalLoop=1;jettySize=auto;html=1;" edge="1" parent="1" source="WntsAN7YbI-L3OEoXd3N-2" target="WntsAN7YbI-L3OEoXd3N-4">
          <mxGeometry relative="1" as="geometry" />
        </mxCell>
        <mxCell id="WntsAN7YbI-L3OEoXd3N-2" value="สร้างตัวแปร celcsius&lt;div&gt;และ fahrenheit&lt;br&gt;&lt;div&gt;&lt;br&gt;&lt;/div&gt;&lt;/div&gt;" style="whiteSpace=wrap;html=1;strokeWidth=2;" vertex="1" parent="1">
          <mxGeometry x="354" y="190" width="120" height="60" as="geometry" />
        </mxCell>
        <mxCell id="WntsAN7YbI-L3OEoXd3N-7" value="" style="edgeStyle=orthogonalEdgeStyle;rounded=0;orthogonalLoop=1;jettySize=auto;html=1;" edge="1" parent="1" source="WntsAN7YbI-L3OEoXd3N-4" target="WntsAN7YbI-L3OEoXd3N-6">
          <mxGeometry relative="1" as="geometry" />
        </mxCell>
        <mxCell id="WntsAN7YbI-L3OEoXd3N-4" value="แสดงคำว่า User Input" style="shape=parallelogram;perimeter=parallelogramPerimeter;whiteSpace=wrap;html=1;fixedSize=1;strokeWidth=2;" vertex="1" parent="1">
          <mxGeometry x="321" y="330" width="186" height="60" as="geometry" />
        </mxCell>
        <mxCell id="WntsAN7YbI-L3OEoXd3N-9" value="" style="edgeStyle=orthogonalEdgeStyle;rounded=0;orthogonalLoop=1;jettySize=auto;html=1;" edge="1" parent="1" source="WntsAN7YbI-L3OEoXd3N-6" target="WntsAN7YbI-L3OEoXd3N-8">
          <mxGeometry relative="1" as="geometry" />
        </mxCell>
        <mxCell id="WntsAN7YbI-L3OEoXd3N-6" value="รับค่าจากผู้ใช้" style="shape=parallelogram;perimeter=parallelogramPerimeter;whiteSpace=wrap;html=1;fixedSize=1;strokeWidth=2;" vertex="1" parent="1">
          <mxGeometry x="354" y="470" width="120" height="60" as="geometry" />
        </mxCell>
        <mxCell id="WntsAN7YbI-L3OEoXd3N-13" value="" style="edgeStyle=orthogonalEdgeStyle;rounded=0;orthogonalLoop=1;jettySize=auto;html=1;" edge="1" parent="1" source="WntsAN7YbI-L3OEoXd3N-8" target="WntsAN7YbI-L3OEoXd3N-12">
          <mxGeometry relative="1" as="geometry" />
        </mxCell>
        <mxCell id="WntsAN7YbI-L3OEoXd3N-8" value="farenheit = ( celcsius * 9.0 / 5.0 ) +32&amp;nbsp;" style="whiteSpace=wrap;html=1;strokeWidth=2;" vertex="1" parent="1">
          <mxGeometry x="296" y="610" width="236" height="60" as="geometry" />
        </mxCell>
        <mxCell id="WntsAN7YbI-L3OEoXd3N-15" value="" style="edgeStyle=orthogonalEdgeStyle;rounded=0;orthogonalLoop=1;jettySize=auto;html=1;" edge="1" parent="1" source="WntsAN7YbI-L3OEoXd3N-12" target="WntsAN7YbI-L3OEoXd3N-14">
          <mxGeometry relative="1" as="geometry" />
        </mxCell>
        <mxCell id="WntsAN7YbI-L3OEoXd3N-12" value="แสดงผลลัพธ์" style="shape=parallelogram;perimeter=parallelogramPerimeter;whiteSpace=wrap;html=1;fixedSize=1;strokeWidth=2;" vertex="1" parent="1">
          <mxGeometry x="354" y="750" width="120" height="60" as="geometry" />
        </mxCell>
        <mxCell id="WntsAN7YbI-L3OEoXd3N-14" value="end" style="strokeWidth=2;html=1;shape=mxgraph.flowchart.terminator;whiteSpace=wrap;" vertex="1" parent="1">
          <mxGeometry x="364" y="870" width="100" height="60" as="geometry" />
        </mxCell>
      </root>
    </mxGraphModel>
  </diagram>
</mxfile>
